<svg xmlns="http://www.w3.org/2000/svg" viewBox="0 0 48 41.25" width="30" height="30" fill="#b91c1c"><g id="Layer_2" data-name="Layer 2"><g id="Layer_1-2" data-name="Layer 1"><path class="cls-1" d="M48,37.5a3.76,3.76,0,1,1-1.1-2.65A3.76,3.76,0,0,1,48,37.5Zm0-10a3.75,3.75,0,0,1-7.5,0V3.75a3.75,3.75,0,0,1,7.5,0Z"/><path class="cls-1" d="M7.5,37.5a3.76,3.76,0,1,1-1.1-2.65A3.76,3.76,0,0,1,7.5,37.5Zm0-10a3.75,3.75,0,0,1-7.5,0V3.75a3.75,3.75,0,0,1,7.5,0Z"/><path class="cls-1" d="M28,37.5a3.76,3.76,0,1,1-1.1-2.65A3.76,3.76,0,0,1,28,37.5Zm0-10a3.75,3.75,0,0,1-7.5,0V3.75a3.75,3.75,0,0,1,7.5,0Z"/></g></g></svg>